<svg xmlns="http://www.w3.org/2000/svg" width="52" height="52" viewBox="0 0 52 52">
  <metadata><?xpacket begin="﻿" id="W5M0MpCehiHzreSzNTczkc9d"?>
<x:xmpmeta xmlns:x="adobe:ns:meta/" x:xmptk="Adobe XMP Core 5.6-c138 79.159824, 2016/09/14-01:09:01        ">
   <rdf:RDF xmlns:rdf="http://www.w3.org/1999/02/22-rdf-syntax-ns#">
      <rdf:Description rdf:about=""/>
   </rdf:RDF>
</x:xmpmeta>
                                                                                                    
                                                                                                    
                                                                                                    
                                                                                                    
                                                                                                    
                                                                                                    
                                                                                                    
                                                                                                    
                                                                                                    
                                                                                                    
                                                                                                    
                                                                                                    
                                                                                                    
                                                                                                    
                                                                                                    
                                                                                                    
                                                                                                    
                                                                                                    
                                                                                                    
                                                                                                    
                           
<?xpacket end="w"?></metadata>
<defs>
    <style>
      .cls-1 {
        fill: #ffcc12;
      }

      .cls-1, .cls-2 {
        fill-rule: evenodd;
      }
    </style>
  </defs>
  <path class="cls-1" d="M17.334,9.174A5.06,5.06,0,0,0,18.81,7.439a5.22,5.22,0,0,0,.2-2.336,3.183,3.183,0,0,1,.112-1.556,3.164,3.164,0,0,1,1.557-.113,5.286,5.286,0,0,0,2.34-.2,5.086,5.086,0,0,0,1.735-1.476A3.023,3.023,0,0,1,25.993.7a3.021,3.021,0,0,1,1.238,1.055,5.078,5.078,0,0,0,1.737,1.476,5.276,5.276,0,0,0,2.338.2,3.185,3.185,0,0,1,1.557.113A3.161,3.161,0,0,1,32.975,5.1a5.235,5.235,0,0,0,.2,2.338,5.069,5.069,0,0,0,1.477,1.733,3.029,3.029,0,0,1,1.056,1.237,3.015,3.015,0,0,1-1.056,1.237,5.076,5.076,0,0,0-1.477,1.735,5.227,5.227,0,0,0-.2,2.337,3.176,3.176,0,0,1-.112,1.556,3.19,3.19,0,0,1-1.557.113,8.678,8.678,0,0,0-1.517.007c-0.012,0-.022,0-0.034,0-0.034,0-.062.013-0.1,0.017-0.074.012-.148,0.024-0.221,0.041a2.793,2.793,0,0,0-.471.138h0a5.086,5.086,0,0,0-1.735,1.476,3.022,3.022,0,0,1-1.238,1.055,3.023,3.023,0,0,1-1.238-1.055,5.076,5.076,0,0,0-1.736-1.476,2.888,2.888,0,0,0-.613-0.165c-0.051-.009-0.1-0.022-0.154-0.028l-0.022,0c-0.006,0-.011,0-0.015,0a5.08,5.08,0,0,0-.633-0.042c-0.3,0-.6.019-0.9,0.037a3.192,3.192,0,0,1-1.557-.113,3.182,3.182,0,0,1-.112-1.556,5.227,5.227,0,0,0-.2-2.338,5.081,5.081,0,0,0-1.477-1.734,3.015,3.015,0,0,1-1.056-1.238A3.028,3.028,0,0,1,17.334,9.174ZM25.991,6.51a4,4,0,1,1-4,4A4,4,0,0,1,25.991,6.51Zm8.727,36.28h6.823v4.546H34.718V42.79Z"/>
  <path class="cls-2" d="M0.2,20.239a0.869,0.869,0,0,0-.121.956l4.243,8.479V47.661a0.863,0.863,0,0,0,.593.821l10.4,3.465a0.852,0.852,0,0,0,.274.046H45.063a0.866,0.866,0,0,0,.867-0.867V33.207l5.911-8.44a0.865,0.865,0,0,0-.5-1.336l-10.4-2.6a0.866,0.866,0,0,0-.894.307L34.237,28.6H14.392l-2.361-4.719a0.866,0.866,0,0,0-.5-0.434l-10.4-3.466A0.87,0.87,0,0,0,.2,20.239ZM6.055,30.672l8.669,2.887V49.925L6.055,47.037V30.672ZM44.2,50.26H16.457V33.8H44.2V50.26ZM41.067,22.649L49.7,24.806l-4.974,7.1L36.1,29.035ZM34.52,30.335l5.2,1.733h-23.6l-0.867-1.733H34.52ZM10.641,24.98l2.438,4.874a0,0,0,0,0,0,0l0.8,1.6L5.8,28.761,2.564,22.289ZM17.124,8a3.435,3.435,0,0,0-1.534,2.407,3.432,3.432,0,0,0,1.534,2.407,3.656,3.656,0,0,1,.857.908,3.78,3.78,0,0,1,.051,1.316,3.341,3.341,0,0,0,.6,2.72,3.352,3.352,0,0,0,2.721.6l0.3-.017v5.923a0.867,0.867,0,0,0,1.077.841l3.257-.813L29.25,25.11a0.832,0.832,0,0,0,.21.028,0.868,0.868,0,0,0,.867-0.867V18.349l0.3,0.017a3.353,3.353,0,0,0,2.721-.6,3.34,3.34,0,0,0,.6-2.719A3.781,3.781,0,0,1,34,13.727a3.7,3.7,0,0,1,.858-0.909,3.434,3.434,0,0,0,1.533-2.407A3.432,3.432,0,0,0,34.86,8,3.663,3.663,0,0,1,34,7.1a3.787,3.787,0,0,1-.051-1.317,3.342,3.342,0,0,0-.6-2.719,3.342,3.342,0,0,0-2.721-.6A3.752,3.752,0,0,1,29.31,2.4,3.683,3.683,0,0,1,28.4,1.548,3.436,3.436,0,0,0,25.992.016a3.437,3.437,0,0,0-2.409,1.533,3.641,3.641,0,0,1-.909.857,3.742,3.742,0,0,1-1.318.05,3.347,3.347,0,0,0-2.721.6,3.338,3.338,0,0,0-.6,2.719A3.783,3.783,0,0,1,17.981,7.1,3.684,3.684,0,0,1,17.124,8ZM26.2,22.565a0.849,0.849,0,0,0-.419,0l-2.391.6V19.057l0.192,0.217a3.441,3.441,0,0,0,2.409,1.532A3.438,3.438,0,0,0,28.4,19.273c0.063-.071.127-0.145,0.192-0.217v4.105ZM18.266,9.307a4.514,4.514,0,0,0,1.318-1.548,4.658,4.658,0,0,0,.179-2.085,2.839,2.839,0,0,1,.1-1.388,2.823,2.823,0,0,1,1.39-.1,4.716,4.716,0,0,0,2.087-.179A4.537,4.537,0,0,0,24.888,2.69a2.7,2.7,0,0,1,1.1-.942,2.7,2.7,0,0,1,1.1.942,4.53,4.53,0,0,0,1.55,1.317,4.707,4.707,0,0,0,2.086.179,2.841,2.841,0,0,1,1.389.1,2.821,2.821,0,0,1,.1,1.388A4.67,4.67,0,0,0,32.4,7.76a4.523,4.523,0,0,0,1.318,1.546,2.7,2.7,0,0,1,.942,1.1,2.689,2.689,0,0,1-.942,1.1A4.53,4.53,0,0,0,32.4,13.063a4.663,4.663,0,0,0-.179,2.085,2.834,2.834,0,0,1-.1,1.388,2.846,2.846,0,0,1-1.389.1,7.739,7.739,0,0,0-1.353.006c-0.01,0-.02,0-0.03,0-0.03,0-.055.011-0.085,0.015-0.066.011-.132,0.022-0.2,0.037a2.5,2.5,0,0,0-.421.123h0A4.537,4.537,0,0,0,27.1,18.132a2.7,2.7,0,0,1-1.1.941,2.7,2.7,0,0,1-1.1-.941,4.529,4.529,0,0,0-1.549-1.317,2.587,2.587,0,0,0-.547-0.147c-0.046-.008-0.091-0.019-0.138-0.025l-0.019,0H22.621a4.527,4.527,0,0,0-.565-0.038c-0.268,0-.538.017-0.8,0.034a2.847,2.847,0,0,1-1.39-.1,2.838,2.838,0,0,1-.1-1.388,4.665,4.665,0,0,0-.179-2.086,4.533,4.533,0,0,0-1.318-1.547,2.69,2.69,0,0,1-.942-1.1A2.7,2.7,0,0,1,18.266,9.307Zm7.726,6.3a5.2,5.2,0,1,0-5.2-5.2A5.2,5.2,0,0,0,25.992,15.609Zm0-8.663a3.465,3.465,0,1,1-3.467,3.465A3.47,3.47,0,0,1,25.992,6.946Zm8.669,41.582H41.6a0.866,0.866,0,0,0,.867-0.866v-5.2A0.866,0.866,0,0,0,41.6,41.6H34.661a0.866,0.866,0,0,0-.867.866v5.2A0.866,0.866,0,0,0,34.661,48.528Zm0.867-5.2h5.2V46.8h-5.2V43.33ZM5.188,0.016V1.748H3.454V3.481H5.188V5.213H6.922V3.481H8.655V1.748H6.922V0.016H5.188ZM46.8,5.213V6.946H45.063V8.678H46.8v1.732h1.734V8.678h1.734V6.946H48.531V5.213H46.8ZM35.528,20.807h1.734A4.338,4.338,0,0,1,41.6,16.475V14.743A6.073,6.073,0,0,0,35.528,20.807ZM10.389,14.743v1.732a4.338,4.338,0,0,1,4.334,4.332h1.734A6.073,6.073,0,0,0,10.389,14.743Z"/>
</svg>
