<svg xmlns="http://www.w3.org/2000/svg" width="52" height="52" viewBox="0 0 52 52">
  <metadata><?xpacket begin="﻿" id="W5M0MpCehiHzreSzNTczkc9d"?>
<x:xmpmeta xmlns:x="adobe:ns:meta/" x:xmptk="Adobe XMP Core 5.6-c138 79.159824, 2016/09/14-01:09:01        ">
   <rdf:RDF xmlns:rdf="http://www.w3.org/1999/02/22-rdf-syntax-ns#">
      <rdf:Description rdf:about=""/>
   </rdf:RDF>
</x:xmpmeta>
                                                                                                    
                                                                                                    
                                                                                                    
                                                                                                    
                                                                                                    
                                                                                                    
                                                                                                    
                                                                                                    
                                                                                                    
                                                                                                    
                                                                                                    
                                                                                                    
                                                                                                    
                                                                                                    
                                                                                                    
                                                                                                    
                                                                                                    
                                                                                                    
                                                                                                    
                                                                                                    
                           
<?xpacket end="w"?></metadata>
<defs>
    <style>
      .cls-1 {
        fill: #ffcc12;
      }

      .cls-1, .cls-2 {
        fill-rule: evenodd;
      }
    </style>
  </defs>
  <path class="cls-1" d="M40,18h6v6H40V18ZM29,1L25,13v9l3-3,2.5,3L33,19l3,3V13L32,1H29Z"/>
  <path class="cls-2" d="M51.934,12.679c0-.011-0.013-0.021-0.018-0.031a0.857,0.857,0,0,0-.1-0.174L42.279,0.346A0.866,0.866,0,0,0,41.6.016H19.06a0.866,0.866,0,0,0-.681.33L8.843,12.474a0.835,0.835,0,0,0-.1.174c-0.005.011-.013,0.02-0.018,0.031a0.827,0.827,0,0,0-.06.3c0,0.012-.007.021-0.007,0.033V29.47h-7.8a0.866,0.866,0,0,0-.867.865,7.811,7.811,0,0,0,6.1,7.608,7.445,7.445,0,0,0,4.31,6.174c0,0.026,0,.052,0,0.078,0,4.518,3.646,7.8,8.669,7.8h3.468a0.8,0.8,0,0,0,.328-0.071,11.328,11.328,0,0,0,9.184-6.859H51.134A0.867,0.867,0,0,0,52,44.2V13.01c0-.012-0.006-0.022-0.007-0.033A0.852,0.852,0,0,0,51.934,12.679Zm-2.584-.535H36.184l-2.971-10.4h7.965ZM25.995,13.877h8.669v5.705l-1.121-1.121a0.866,0.866,0,0,0-1.225,0l-1.988,1.987-1.988-1.987a0.867,0.867,0,0,0-1.226,0l-1.121,1.121V13.877ZM31.409,1.748l2.973,10.4h-8.1l2.973-10.4h2.159Zm-11.928,0h7.965l-2.972,10.4H11.308ZM22.455,50.22a0.747,0.747,0,0,0-.193.04h-3.2c-3.744,0-6.453-2.1-6.877-5.2H19.06a0.866,0.866,0,1,0,0-1.733H14.725c-3.744,0-6.453-2.1-6.877-5.2h5.143a0.866,0.866,0,1,0,0-1.733h-5.2a6.076,6.076,0,0,1-6.007-5.2H21.66A9.544,9.544,0,0,1,31.2,40.731c0,0.286-.015.569-0.041,0.85-0.012.13-.034,0.261-0.051,0.391-0.019.145-.037,0.291-0.063,0.434s-0.066.313-.1,0.468c-0.028.118-.055,0.235-0.087,0.352-0.041.147-.088,0.294-0.136,0.441A9.586,9.586,0,0,1,22.455,50.22Zm27.811-6.89H32.619c0.013-.055.017-0.111,0.03-0.167q0.1-.447.163-0.905c0.015-.106.034-0.211,0.045-0.317A11.2,11.2,0,0,0,21.66,29.47H10.391V13.877h13.87v7.8a0.867,0.867,0,0,0,1.48.612L27.728,20.3l1.988,1.987a0.866,0.866,0,0,0,1.226,0L32.93,20.3l1.988,1.987a0.867,0.867,0,0,0,1.48-.612v-7.8h13.87V43.33Zm-10.4-18.192H46.8a0.867,0.867,0,0,0,.867-0.867v-6.93a0.867,0.867,0,0,0-.867-0.867H39.864a0.867,0.867,0,0,0-.867.867v6.93A0.867,0.867,0,0,0,39.864,25.138Zm0.867-6.931h5.2v5.2h-5.2v-5.2Zm-27.74-1.732h7.8v1.732h-7.8V16.475Zm0,3.466h7.8v1.733h-7.8V19.94ZM35.53,29.47H47.666V31.2H35.53V29.47Zm0,3.465H47.666v1.732H35.53V32.934Zm0,3.465H47.666v1.733H35.53V36.4Zm0,3.465H47.666V41.6H35.53V39.864Z"/>
</svg>
