<svg xmlns="http://www.w3.org/2000/svg" width="52" height="52" viewBox="0 0 52 52">
  <metadata><?xpacket begin="﻿" id="W5M0MpCehiHzreSzNTczkc9d"?>
<x:xmpmeta xmlns:x="adobe:ns:meta/" x:xmptk="Adobe XMP Core 5.6-c138 79.159824, 2016/09/14-01:09:01        ">
   <rdf:RDF xmlns:rdf="http://www.w3.org/1999/02/22-rdf-syntax-ns#">
      <rdf:Description rdf:about=""/>
   </rdf:RDF>
</x:xmpmeta>
                                                                                                    
                                                                                                    
                                                                                                    
                                                                                                    
                                                                                                    
                                                                                                    
                                                                                                    
                                                                                                    
                                                                                                    
                                                                                                    
                                                                                                    
                                                                                                    
                                                                                                    
                                                                                                    
                                                                                                    
                                                                                                    
                                                                                                    
                                                                                                    
                                                                                                    
                                                                                                    
                           
<?xpacket end="w"?></metadata>
<defs>
    <style>
      .cls-1 {
        fill: #ffcc12;
      }

      .cls-1, .cls-2 {
        fill-rule: evenodd;
      }
    </style>
  </defs>
  <path class="cls-1" d="M35,18h6v6H35V18ZM24,1L20,13v9l3-3,2.5,3L28,19l3,3V13L27,1H24Z"/>
  <path class="cls-2" d="M34.861,25.138h6.86a0.862,0.862,0,0,0,.858-0.867v-6.93a0.862,0.862,0,0,0-.858-0.867h-6.86a0.862,0.862,0,0,0-.857.867v6.93A0.862,0.862,0,0,0,34.861,25.138Zm0.858-6.931h5.145v5.2H35.718v-5.2ZM8.278,16.475H16v1.733H8.278V16.475Zm0,3.466H16v1.733H8.278V19.94Zm0,9.529h12V31.2h-12V29.47Zm0,3.465h12v1.732h-12V32.935Zm0,3.465h12v1.733h-12V36.4Zm0,3.465h12V41.6h-12V39.864ZM40.863,36.4h0.857l-1.544,2.079,1.372,1.039,2.572-3.465a0.872,0.872,0,0,0,0-1.039l-2.572-3.465-1.372,1.04,1.544,2.079H40.863a6.041,6.041,0,0,0-6,6.064h1.715A4.315,4.315,0,0,1,40.863,36.4Zm-0.858,6.93H39.148l1.543-2.079-1.372-1.04-2.572,3.465a0.872,0.872,0,0,0,0,1.039L39.32,48.18l1.372-1.04-1.543-2.078h0.857a6.041,6.041,0,0,0,6-6.065H44.293A4.314,4.314,0,0,1,40.006,43.33Zm6.86-13.4V13.01c0-.012-0.006-0.022-0.007-0.034a0.877,0.877,0,0,0-.059-0.3c-0.005-.011-0.013-0.021-0.018-0.033a0.879,0.879,0,0,0-.1-0.172L37.251,0.346a0.857,0.857,0,0,0-.675-0.33H14.281a0.855,0.855,0,0,0-.674.33L4.174,12.474a0.9,0.9,0,0,0-.1.172,0.284,0.284,0,0,0-.018.033,0.862,0.862,0,0,0-.059.3,0.208,0.208,0,0,0-.008.034V44.2a0.862,0.862,0,0,0,.857.866H29.175a11.975,11.975,0,0,0,22.835-5.2A12.151,12.151,0,0,0,46.866,29.926ZM44.243,12.144H31.22L28.28,1.748h7.88Zm-23.1,1.732h8.575v5.705l-1.109-1.121a0.85,0.85,0,0,0-1.212,0l-1.966,1.987-1.966-1.987a0.851,0.851,0,0,0-1.212,0l-1.109,1.121V13.876ZM26.5,1.748l2.94,10.4H21.42l2.941-10.4H26.5Zm-11.8,0h7.88l-2.94,10.4H6.613ZM28.5,43.33H5.706V13.876h13.72v7.8a0.866,0.866,0,0,0,.529.8,0.85,0.85,0,0,0,.935-0.188L22.856,20.3l1.966,1.987a0.851,0.851,0,0,0,1.212,0L28,20.3l1.966,1.987a0.856,0.856,0,0,0,.606.253,0.828,0.828,0,0,0,.328-0.065,0.866,0.866,0,0,0,.529-0.8v-7.8h13.72V28.913c-0.045-.021-0.093-0.037-0.139-0.058-0.291-.135-0.587-0.257-0.89-0.369-0.1-.039-0.206-0.08-0.31-0.115-0.3-.1-0.613-0.188-0.926-0.268-0.105-.027-0.209-0.059-0.316-0.082-0.322-.071-0.65-0.123-0.981-0.168-0.1-.012-0.195-0.034-0.292-0.044A11.981,11.981,0,0,0,28,39.864c0,0.373.022,0.742,0.056,1.108,0.009,0.1.021,0.2,0.032,0.3q0.05,0.434.131,0.864c0.015,0.079.026,0.158,0.043,0.237C28.329,42.695,28.406,43.014,28.5,43.33Zm11.506,6.93a10.3,10.3,0,0,1-9.661-6.85c-0.058-.162-0.123-0.322-0.173-0.485-0.056-.182-0.1-0.369-0.142-0.554-0.036-.146-0.08-0.29-0.109-0.437-0.045-.224-0.073-0.454-0.1-0.682-0.015-.114-0.039-0.226-0.05-0.341A10.394,10.394,0,0,1,40.006,29.47c0.312,0,.619.019,0.924,0.047,0.1,0.008.191,0.02,0.286,0.031,0.221,0.026.44,0.062,0.656,0.1,0.093,0.017.186,0.032,0.278,0.052,0.268,0.058.532,0.127,0.791,0.206,0.13,0.041.26,0.086,0.389,0.131q0.216,0.073.427,0.159c0.142,0.056.282,0.113,0.421,0.175s0.248,0.12.371,0.181c0.243,0.122.483,0.253,0.718,0.4A10.4,10.4,0,0,1,40.006,50.26Z"/>
</svg>
